<svg version="1.2" xmlns="http://www.w3.org/2000/svg" viewBox="0 0 1836 476" width="170" height="80">
	<title>horizontal-oscuro-svg</title>
	<style>
		.s0 { fill: #000000 } 
	</style>
	<g id="Layer">
		<path id="Layer" class="s0" d="m783.5 136.2h14.3v76h-14.3z"/>
		<path id="Layer" class="s0" d="m899.7 136.2h71.6v12.6h-28.6v63.3h-14.3v-63.3h-28.7z"/>
		<path id="Layer" class="s0" d="m985.7 136.2h64.2v12.4h-49.9v20.4h44.4v12.1h-44.4v18.6h49.9v12.5h-64.2z"/>
		<path id="Layer" class="s0" d="m1064.3 136.2h43.4q13-0.1 20.5 6 7.5 5.8 7.5 16.3 0 8.4-4.9 14-5 5.6-13.9 7.3l24.4 32.3h-17.7l-22.7-30.7h-19.1v-12.4h27.4q5.7 0 8.9-2.7 3.2-2.7 3.3-7.5-0.1-4.8-3.2-7.5-3.3-2.8-8.7-2.8h-30.9v63.6h-14.3z"/>
		<path id="Layer" class="s0" d="m1415.9 136.2h14.3v76h-14.3z"/>
		<path id="Layer" fill-rule="evenodd" class="s0" d="m1457 201.6q-12.4-10.4-12.4-27.4 0-17 12.4-27.5 12.5-10.5 32.3-10.5 19.7 0 32.2 10.5 12.5 10.5 12.5 27.5 0 17-12.5 27.4-12.5 10.5-32.2 10.6-19.8 0-32.3-10.6zm32.2-1.8q13.3 0 21.7-7.1 8.3-7.1 8.3-18.5 0-11.5-8.3-18.6-8.4-7.1-21.7-7.1-13.3 0-21.7 7.1-8.1 7-8.1 18.6 0 11.5 8.1 18.5 8.4 7.1 21.7 7.1z"/>
		<path id="Layer" class="s0" d="m1548.3 136.2h13.4l45.9 53.8v-53.9h13.9v76h-11.9l-47.4-55.4v55.4h-13.9z"/>
		<path id="Layer" class="s0" d="m812.1 136.2h13.4l45.9 53.8v-53.9h14v76h-12l-47.3-55.4v55.4h-14z"/>
		<path id="Layer" class="s0" d="m1150 136.2h13.4l45.9 53.8v-53.9h13.9v76h-11.9l-47.3-55.4v55.4h-14z"/>
		<path id="Layer" class="s0" d="m1260.4 195.3l-7.7 16.8h-15.1l35.3-76h17.1l35.4 76h-15.6l-7.9-16.8h-37.7l5.2-12.5h27.4l-15.7-33.9-15.4 33.9"/>
		<path id="Layer" class="s0" d="m1658.7 195.3l-7.7 16.8h-15.1l35.3-76h17l35.5 76h-15.6l-7.9-16.8h-37.7l5.2-12.5h27.3l-15.6-33.9-15.5 33.9"/>
		<path id="Layer" class="s0" d="m689.8 195.3l-7.7 16.8h-15.2l35.4-76h17l35.5 76h-15.6l-7.9-16.8h-37.7l5.2-12.5h27.3l-15.6-33.9-15.5 33.9"/>
		<path id="Layer" class="s0" d="m1738 136.2h14.4v63.4h48v12.6h-62.4c0 0 0-76 0-76z"/>
		<path id="Layer" class="s0" d="m590.2 136.2h14.4v63.4h48v12.6h-62.4c0 0 0-76 0-76z"/>
		<g id="Layer">
			<path id="Layer" class="s0" d="m1371.7 199.8q-13.3 0-21.7-7.1-8.2-7-8.2-18.5 0-11.6 8.2-18.6 8.4-7.1 21.7-7.1c8.1 0 14.8 2 20.2 6l9.7-9.7q-12-8.7-29.8-8.7-19.8 0-32.3 10.6-12.4 10.4-12.4 27.5-0.1 16.9 12.4 27.4 12.5 10.5 32.3 10.5 17.8 0 29.7-8.6l-9.6-9.7q-8.1 6-20.2 6z"/>
		</g>
	</g>
	<g id="Layer">
		<path id="Layer" fill-rule="evenodd" class="s0" d="m590.2 242.2h35.6q17.4 0 28.2 10.5 10.7 10.5 10.7 27.6 0 17-10.6 27.5-10.4 10.3-27.9 10.4h-36c0 0 0-76 0-76zm11.1 9.9v56.1h23.9q13 0 20.8-7.6 7.9-7.7 7.9-20.3 0-12.8-8.1-20.4-8.1-7.8-21-7.8z"/>
		<path id="Layer" class="s0" d="m888.8 249l-4 9.3q-14.1-6.5-29-6.5-21.6 0-21.6 10.9 0 8.3 14.5 10.2l19.6 2.4q23.2 2.9 23.2 21.1 0 21.8-32.5 21.8-20 0-37.4-7.9l4.2-10.1q17.1 8 33.8 8 21 0.1 21-11.4 0-9.1-15.3-10.9l-19.4-2.3q-11-1.3-16.8-6.6-5.9-5.3-5.9-13.8 0-10.1 8.4-15.5 8.5-5.5 24.1-5.5 17.5-0.1 33.1 6.8z"/>
		<path id="Layer" class="s0" d="m920.2 242.2h63v9.6h-52v24.6h46.2v9.4h-46.2v22.7h52v9.6h-63z"/>
		<path id="Layer" class="s0" d="m693.4 242.2h60.2v9.6h-49.2v24.6h46.2l-3.9 9.4h-42.3v22.7h52v9.6h-63c0 0 0-75.9 0-75.9z"/>
		<path id="Layer" class="s0" d="m1091 276v34.6q-16 7.6-33.9 7.5-20.6 0-33-10.2-12.1-10.4-12.1-27.9 0-17.6 12.4-27.7 12.5-10.2 33.7-10.2 14.9 0.1 31.8 6.3l-4 9.6q-13.8-6.1-27.5-6.2-16.2 0.1-25.8 7.6-9.3 7.4-9.3 20.4 0 13 9.2 20.7 9.4 7.6 25.2 7.6 11.5 0 22.5-4v-18.7h-28.1v-9.4h38.9z"/>
		<path id="Layer" class="s0" d="m1119.2 242.2h11v42.8q0 10.7 6.6 17 6.6 6.3 17.9 6.3 11.5 0 18.1-6.3 6.7-6.3 6.7-17v-42.8h11v44.4q0 14.6-9.6 23.1-9.5 8.4-26 8.5-16.7-0.1-26.2-8.5-9.5-8.5-9.5-23.1z"/>
		<path id="Layer" class="s0" d="m1219 242.2h42.4q12 0 19 6.1 7.3 6.1 7.3 16.1 0 8.4-5.3 14-5.3 5.6-14.5 7l25 32.8h-13.8l-23.8-31.8h-22.1v-9.6h28.8q6.7 0 10.7-3.3 4.1-3.4 4.1-9 0-5.7-3.9-9.2-4-3.5-10.4-3.5h-32.5v66.3h-11c0 0 0-75.9 0-75.9z"/>
		<path id="Layer" fill-rule="evenodd" class="s0" d="m1359.8 242.2q18.8 0 31.2 10.7 12.2 10.6 12.2 27.3 0 16.7-12.2 27.4-12.3 10.6-31.2 10.6-19 0-31.4-10.6-12-10.7-12-27.4 0-16.7 12-27.3 12.4-10.7 31.4-10.7zm-23.3 17.6q-8.8 7.8-8.9 20.4 0.1 12.6 8.9 20.4 9.1 7.8 23.3 7.8 14.1 0 23.1-7.8 9-7.9 9-20.4 0-12.5-9-20.4-9-7.9-23.1-7.9-14.3 0-23.3 7.9z"/>
		<path id="Layer" class="s0" d="m1490.6 249l-4 9.3q-14.1-6.5-29-6.5-21.6 0-21.6 10.9 0 8.3 14.5 10.2l19.6 2.4q23.2 2.9 23.2 21.1 0 21.8-32.5 21.8-20 0-37.4-7.9l4.2-10.1q17.1 8 33.8 8 21 0.1 21-11.4 0-9.1-15.3-10.9l-19.4-2.3q-11-1.3-16.8-6.6-5.9-5.3-5.9-13.8 0-10.1 8.4-15.5 8.5-5.5 24.1-5.5 17.5-0.1 33.1 6.8z"/>
	</g>
	<g id="Layer">
		<path id="Layer" class="s0" d="m539.9 155.5c-4.9-14.7-11.6-28.7-20.2-41.7q4 8.6 7 17.6c7.4 22.2 9.7 45.4 6.8 69-2.6 22.3-9.9 44.3-21.4 65.4-30.6 55.8-88.3 99.6-158.4 120.3-13.1 3.8-26.6 6.9-39.9 9-7.7 1.1-15.4 2.1-23.1 2.6-25.6 2-51 0.7-75.3-3.9-24.3-4.6-47-12.4-67.5-23.1-21.2-11.1-39.5-25.1-54.5-41.6-15.8-17.4-27.4-37.1-34.5-58.7-7.4-22.2-9.7-45.4-6.9-68.9q1.4-11.8 4.6-23.5c-7.1 16.8-11.7 34-13.8 51.5-2.9 25-0.5 49.7 7.3 73.3 7.5 23 19.7 44 36.3 62.5 15.6 17.6 34.8 32.5 57.1 44.3 21.5 11.5 45.3 19.8 70.7 24.7 25.5 5 52 6.4 78.9 4.3 8-0.6 16.1-1.6 24.1-2.8 14-2.2 28.1-5.4 41.8-9.5 73.4-21.9 133.8-68.5 165.7-127.8 12.1-22.4 19.7-45.9 22.4-69.6 3-25 0.5-49.7-7.2-73.4z"/>
	</g>
	<g id="Layer">
		<path id="Layer" class="s0" d="m494.6 141.4q-2.6-7.8-6.1-15.2c2.8 14 3.4 28.3 1.7 42.8-2.3 18.7-8.3 37.1-18 54.8-25.3 46.3-73.1 82.6-131.1 99.7-10.9 3.2-21.9 5.7-33 7.4-6.3 1-12.7 1.7-19 2.2-21.2 1.7-42.2 0.6-62.3-3.2-20.1-3.8-39-10.3-56.1-19.3-17.7-9.2-33-20.9-45.5-34.7-13.3-14.6-23.1-31.2-29.1-49.4-4.5-13.5-6.7-27.4-6.7-41.6-6.8 24.9-6.7 50.7 1.5 75.6 23.5 70.9 106 112.2 197.3 105.1q10.1-0.8 20.4-2.4c11.7-1.8 23.6-4.5 35.4-7.9 111.4-32.9 178.9-128.7 150.6-213.9z"/>
	</g>
	<path id="Layer" fill-rule="evenodd" class="s0" d="m294 36.6c73.3-5.8 139.5 27.4 158.4 84.4 22.7 68.4-31.5 145.3-121 171.7-9.5 2.8-19 4.9-28.5 6.4q-8.2 1.2-16.3 1.9c-73.3 5.7-139.5-27.5-158.4-84.4-22.7-68.4 31.4-145.3 121-171.7 9.4-2.8 18.9-4.9 28.4-6.4q8.2-1.3 16.4-1.9zm25.5 217.8c-4.7 0.7-9.5 1.3-14.2 1.6-61.8 4.9-115.1-22.2-129.5-65.9-7.2-21.5-4.4-44.7 7.9-67.2 2.7-4.8 5.7-9.6 9.2-14.1-11.1 9.9-20.2 21.1-26.7 32.9-12 22-14.7 44.6-7.7 65.5 14.1 42.5 65.9 68.9 126.1 64.2 4.6-0.4 9.2-0.9 13.8-1.6 8.1-1.3 16.1-3.1 24-5.4 21.1-6.2 40-15.7 56.3-28.2q2.9-2.2 5.7-4.5c-12.4 7.1-25.8 12.9-40.3 17.1-8.1 2.4-16.4 4.3-24.6 5.6z"/>
</svg>