<?xml version="1.0" encoding="utf-8"?>
<!-- Generator: Adobe Illustrator 24.0.0, SVG Export Plug-In . SVG Version: 6.00 Build 0)  -->
<svg version="1.1" xmlns="http://www.w3.org/2000/svg" xmlns:xlink="http://www.w3.org/1999/xlink" x="0px" y="0px"
	 viewBox="0 0 1835.92 475.02" style="enable-background:new 0 0 1835.92 475.02;" xml:space="preserve">
<style type="text/css">
	.st0{fill:#27306E;}
	.st1{fill:#FFCB05;}
	.st2{fill:#4D4D4D;}
	.st3{display:none;}
	.st4{display:inline;fill-rule:evenodd;clip-rule:evenodd;fill:none;stroke:#000000;stroke-width:0.05;stroke-miterlimit:10;}
	.st5{display:inline;}
	.st6{fill-rule:evenodd;clip-rule:evenodd;fill:none;stroke:#000000;stroke-width:0.05;stroke-miterlimit:10;}
	.st7{display:inline;fill:none;stroke:#000000;stroke-width:0.05;stroke-miterlimit:10;}
	.st8{fill:none;stroke:#000000;stroke-width:0.05;stroke-miterlimit:10;}
</style>
<g id="Layer_3">
</g>
<g id="Layer_4">
	<g>
		<path class="st0" d="M783.47,136.15h14.33v76h-14.33V136.15z"/>
		<path class="st0" d="M899.71,136.15h71.62v12.61h-28.67v63.39h-14.28v-63.39h-28.67V136.15z"/>
		<path class="st0" d="M985.66,136.15h64.27v12.41h-49.94V169h44.37l0.01,12.07h-44.38v18.67h49.94v12.41h-64.27V136.15z"/>
		<path class="st0" d="M1064.27,136.15h43.39c8.71,0,15.56,2,20.55,6.01c4.99,3.91,7.48,9.35,7.48,16.32
			c0,5.64-1.65,10.31-4.94,14.03c-3.29,3.72-7.92,6.14-13.89,7.28l24.39,32.36h-17.66l-22.73-30.74h-19.09l-0.01-12.41h27.41
			c3.82,0,6.8-0.9,8.95-2.71c2.15-1.81,3.23-4.31,3.23-7.5c0-3.16-1.07-5.67-3.2-7.53c-2.14-1.86-5.03-2.79-8.68-2.79h-30.87v63.68
			h-14.33V136.15z"/>
		<path class="st0" d="M1415.91,136.15h14.33v76h-14.33V136.15z"/>
		<path class="st0" d="M1457.01,201.63c-8.28-6.98-12.43-16.13-12.43-27.45c0-11.35,4.14-20.52,12.43-27.5
			c8.35-7.01,19.11-10.52,32.29-10.52c13.14,0,23.89,3.51,32.24,10.52c8.28,6.98,12.43,16.15,12.43,27.5
			c0,11.32-4.14,20.47-12.43,27.45c-8.35,7.01-19.1,10.52-32.24,10.52C1476.12,212.15,1465.36,208.65,1457.01,201.63z
			 M1489.2,199.82c8.87,0,16.11-2.38,21.72-7.15c5.54-4.7,8.32-10.86,8.32-18.5c0-7.67-2.77-13.85-8.32-18.55
			c-5.61-4.76-12.85-7.15-21.72-7.15c-8.84,0-16.06,2.38-21.67,7.15c-5.45,4.63-8.17,10.81-8.17,18.55c0,7.7,2.72,13.87,8.17,18.5
			C1473.14,197.44,1480.36,199.82,1489.2,199.82z"/>
		<path class="st0" d="M1548.29,136.15h13.4l45.89,53.86v-53.86h13.94v76h-11.94l-47.35-55.47v55.47h-13.94V136.15z"/>
		<path class="st0" d="M812.14,136.15h13.4l45.89,53.86v-53.86h13.94v76h-11.94l-47.35-55.47v55.47h-13.94V136.15z"/>
		<path class="st0" d="M1150.01,136.15h13.4l45.89,53.86v-53.86h13.94v76h-11.94l-47.35-55.47v55.47h-13.94V136.15z"/>
		<path class="st0" d="M1260.42,195.33l-7.73,16.82h-15.12l35.37-76h17.02l35.47,76h-15.65l-7.88-16.82h-37.71l5.26-12.49h27.31
			l-15.61-33.95l-15.48,33.95"/>
		<path class="st0" d="M1658.7,195.33l-7.73,16.82h-15.12l35.37-76h17.02l35.47,76h-15.65l-7.88-16.82h-37.71l5.26-12.49h27.31
			l-15.61-33.95l-15.48,33.95"/>
		<path class="st0" d="M689.79,195.33l-7.73,16.82h-15.12l35.37-76h17.02l35.47,76h-15.65l-7.88-16.82h-37.71l5.26-12.49h27.31
			l-15.61-33.95l-15.48,33.95"/>
		<path class="st0" d="M1738.05,136.15h14.33v63.49h48.03v12.51h-62.37V136.15z"/>
		<path class="st0" d="M590.24,136.15h14.33v63.49h48.03v12.51h-62.37V136.15z"/>
		<g>
			<path class="st0" d="M1371.67,199.82c-8.84,0-16.06-2.38-21.67-7.15c-5.45-4.63-8.17-10.8-8.17-18.5
				c0-7.73,2.72-13.91,8.17-18.55c5.61-4.76,12.83-7.15,21.67-7.15c8.11,0,14.84,2.02,20.23,6l9.68-9.68
				c-7.97-5.76-17.91-8.65-29.81-8.65c-13.18,0-23.94,3.51-32.29,10.52c-8.28,6.98-12.43,16.15-12.43,27.5
				c0,11.32,4.14,20.47,12.43,27.45c8.35,7.01,19.11,10.52,32.29,10.52c11.88,0,21.79-2.88,29.76-8.61l-9.68-9.68
				C1386.47,197.82,1379.75,199.82,1371.67,199.82z"/>
		</g>
	</g>
	<g>
		<path class="st1" d="M539.87,155.51c-4.83-14.74-11.6-28.67-20.2-41.67c2.68,5.71,5.03,11.57,7.03,17.58
			c7.37,22.23,9.68,45.42,6.85,68.95c-2.68,22.32-9.9,44.34-21.47,65.45c-30.55,55.74-88.29,99.58-158.42,120.26
			c-13.1,3.86-26.52,6.88-39.9,8.97c-7.64,1.19-15.4,2.1-23.06,2.7c-25.63,2-50.96,0.67-75.28-3.94
			c-24.29-4.61-47.01-12.4-67.53-23.14c-21.21-11.1-39.54-25.08-54.49-41.55C77.62,311.74,66,292,58.85,270.45
			c-7.37-22.23-9.68-45.42-6.85-68.95c0.95-7.89,2.48-15.74,4.55-23.53c-7.08,16.82-11.69,34.06-13.73,51.49
			c-2.93,25.03-0.48,49.72,7.27,73.38c7.51,22.94,19.71,43.96,36.26,62.47c15.67,17.54,34.89,32.44,57.12,44.28
			c21.51,11.46,45.32,19.77,70.76,24.71c25.47,4.95,52,6.39,78.84,4.3c8.02-0.63,16.14-1.58,24.14-2.84
			c14.01-2.2,28.07-5.39,41.78-9.49c73.42-21.92,133.83-68.48,165.75-127.76c12.09-22.45,19.63-45.87,22.4-69.61
			C550.07,203.86,547.62,179.18,539.87,155.51z"/>
	</g>
	<g>
		<path class="st1" d="M494.64,141.4c-1.74-5.23-3.8-10.3-6.16-15.2c2.87,13.98,3.45,28.32,1.71,42.81
			c-2.25,18.71-8.29,37.14-17.97,54.8c-25.35,46.26-73.16,82.61-131.16,99.71c-10.81,3.19-21.89,5.68-32.93,7.4
			c-6.31,0.98-12.72,1.73-19.04,2.23c-21.19,1.65-42.14,0.56-62.27-3.27c-20.16-3.83-39.04-10.3-56.1-19.23
			c-17.72-9.27-33.05-20.97-45.56-34.76c-13.26-14.61-23.03-31.21-29.05-49.34c-4.48-13.51-6.73-27.45-6.74-41.6
			c-6.79,24.86-6.71,50.64,1.55,75.53c23.53,70.94,105.99,112.23,197.27,105.1c6.76-0.53,13.55-1.32,20.38-2.38
			c11.74-1.83,23.59-4.47,35.39-7.95C455.45,322.36,522.91,226.62,494.64,141.4z"/>
	</g>
	<path class="st1" d="M293.96,36.56c73.29-5.72,139.5,27.43,158.4,84.4c22.7,68.43-31.47,145.31-120.99,171.71
		c-9.48,2.8-18.99,4.92-28.42,6.39c-5.49,0.86-10.94,1.49-16.37,1.91c-73.3,5.72-139.51-27.43-158.41-84.39
		c-22.7-68.43,31.47-145.31,120.99-171.71c9.48-2.8,18.99-4.92,28.42-6.39c0,0,0.01,0,0.01,0
		C283.08,37.62,288.53,36.99,293.96,36.56 M319.48,254.38c-4.69,0.73-9.45,1.29-14.14,1.65c-61.83,4.83-115.12-22.27-129.59-65.89
		c-7.13-21.49-4.38-44.75,7.96-67.26c2.64-4.81,5.7-9.54,9.15-14.12c-11.07,9.94-20.18,21.18-26.64,32.98
		c-12.01,21.92-14.69,44.56-7.75,65.49c14.09,42.48,65.97,68.86,126.17,64.16c4.57-0.36,9.2-0.9,13.77-1.61
		c8.04-1.25,16.12-3.07,24.01-5.4c21.05-6.21,39.98-15.68,56.28-28.15c1.94-1.48,3.83-3.01,5.67-4.56
		c-12.34,7.16-25.8,12.92-40.23,17.18C336.03,251.23,327.73,253.1,319.48,254.38z"/>
	<g>
		<rect x="590.24" y="346.5" class="st2" width="1210.17" height="2"/>
	</g>
	<g>
		<g>
			<path class="st2" d="M594.2,379.5v12.11h-3.95v-29.16h13.72c3.28,0,5.82,0.73,7.6,2.2c1.79,1.47,2.68,3.51,2.68,6.14
				c0,2.17-0.63,3.99-1.89,5.46c-1.26,1.48-3,2.41-5.22,2.79l8.28,12.56h-4.55l-7.57-12.11H594.2z M610.27,370.83
				c0-1.7-0.58-2.99-1.73-3.88c-1.15-0.89-2.81-1.33-4.98-1.33h-9.37v10.76h9.54c2.08,0,3.69-0.49,4.83-1.46
				C609.71,373.95,610.27,372.58,610.27,370.83z"/>
			<path class="st2" d="M625.24,362.45v29.16h-3.95v-29.16H625.24z"/>
			<path class="st2" d="M636.57,379.79v11.82h-3.95v-29.16h20.71v3.23h-16.76v10.84h16.26v3.27H636.57z"/>
			<path class="st2" d="M662.94,369.22v4.28h-4.04v-4.28H662.94z M662.94,387.32v4.28h-4.04v-4.28H662.94z"/>
			<path class="st2" d="M688.04,392.02c-2.47,0-4.44-0.64-5.9-1.91c-1.46-1.28-2.43-3.19-2.9-5.74l3.87-0.64
				c0.25,1.6,0.81,2.85,1.68,3.74c0.87,0.9,1.96,1.34,3.27,1.34c1.43,0,2.57-0.49,3.39-1.48c0.83-0.99,1.24-2.43,1.24-4.33v-17.32
				h-5.61v-3.23h9.54v20.46c0,2.83-0.77,5.05-2.3,6.67C692.79,391.21,690.7,392.02,688.04,392.02z"/>
			<path class="st2" d="M712,378.7v3.31h-10.35v-3.31H712z"/>
			<path class="st2" d="M735.79,377.02c0,4.87-0.86,8.59-2.58,11.15c-1.72,2.57-4.25,3.85-7.6,3.85c-3.35,0-5.87-1.28-7.55-3.83
				c-1.68-2.55-2.52-6.28-2.52-11.17c0-5.01,0.82-8.76,2.45-11.26c1.64-2.5,4.22-3.74,7.75-3.74c3.43,0,5.97,1.26,7.6,3.79
				C734.98,368.33,735.79,372.07,735.79,377.02z M732.01,377.02c0-2.81-0.21-5.1-0.63-6.86c-0.42-1.76-1.09-3.05-2.02-3.88
				s-2.13-1.24-3.62-1.24c-1.52,0-2.75,0.41-3.7,1.22c-0.95,0.81-1.65,2.1-2.08,3.86c-0.43,1.76-0.65,4.06-0.65,6.9
				c0,2.76,0.22,5.02,0.67,6.79c0.45,1.77,1.14,3.07,2.08,3.91c0.94,0.84,2.14,1.26,3.6,1.26c2.19,0,3.8-0.98,4.82-2.94
				C731.5,384.08,732.01,381.08,732.01,377.02z"/>
			<path class="st2" d="M759.36,377.02c0,4.87-0.86,8.59-2.58,11.15c-1.72,2.57-4.25,3.85-7.6,3.85c-3.35,0-5.87-1.28-7.55-3.83
				c-1.68-2.55-2.52-6.28-2.52-11.17c0-5.01,0.82-8.76,2.45-11.26c1.64-2.5,4.22-3.74,7.75-3.74c3.43,0,5.97,1.26,7.6,3.79
				C758.54,368.33,759.36,372.07,759.36,377.02z M755.58,377.02c0-2.81-0.21-5.1-0.63-6.86c-0.42-1.76-1.09-3.05-2.02-3.88
				s-2.13-1.24-3.62-1.24c-1.52,0-2.75,0.41-3.7,1.22s-1.65,2.1-2.08,3.86c-0.43,1.76-0.65,4.06-0.65,6.9
				c0,2.76,0.22,5.02,0.67,6.79c0.45,1.77,1.14,3.07,2.08,3.91c0.94,0.84,2.14,1.26,3.6,1.26c2.19,0,3.8-0.98,4.82-2.94
				C755.07,384.08,755.58,381.08,755.58,377.02z"/>
			<path class="st2" d="M782.72,383.56c0,2.69-0.86,4.77-2.57,6.25c-1.71,1.48-4.15,2.21-7.33,2.21c-2.95,0-5.31-0.67-7.07-2
				c-1.76-1.33-2.8-3.3-3.13-5.91l3.85-0.35c0.5,3.45,2.61,5.17,6.35,5.17c1.88,0,3.35-0.46,4.42-1.39c1.07-0.92,1.6-2.3,1.6-4.12
				c0-1.59-0.61-2.82-1.83-3.71c-1.22-0.89-2.98-1.33-5.29-1.33h-2.11v-3.23h2.03c2.04,0,3.62-0.44,4.75-1.33
				c1.12-0.89,1.69-2.12,1.69-3.69c0-1.56-0.46-2.79-1.38-3.69c-0.92-0.9-2.28-1.36-4.09-1.36c-1.64,0-2.97,0.42-3.98,1.26
				c-1.01,0.84-1.6,2.03-1.77,3.56l-3.75-0.29c0.28-2.39,1.27-4.25,2.97-5.59c1.7-1.34,3.89-2.01,6.57-2.01
				c2.92,0,5.2,0.68,6.82,2.04c1.62,1.36,2.43,3.25,2.43,5.68c0,1.86-0.52,3.38-1.56,4.54c-1.04,1.17-2.55,1.96-4.54,2.37v0.08
				c2.18,0.24,3.88,0.97,5.09,2.19S782.72,381.7,782.72,383.56z"/>
			<path class="st2" d="M806.29,383.56c0,2.69-0.86,4.77-2.57,6.25c-1.71,1.48-4.15,2.21-7.33,2.21c-2.95,0-5.31-0.67-7.07-2
				c-1.76-1.33-2.8-3.3-3.13-5.91l3.85-0.35c0.5,3.45,2.61,5.17,6.35,5.17c1.88,0,3.35-0.46,4.42-1.39c1.07-0.92,1.6-2.3,1.6-4.12
				c0-1.59-0.61-2.82-1.83-3.71c-1.22-0.89-2.98-1.33-5.29-1.33h-2.11v-3.23h2.03c2.04,0,3.62-0.44,4.75-1.33
				c1.12-0.89,1.69-2.12,1.69-3.69c0-1.56-0.46-2.79-1.38-3.69c-0.92-0.9-2.28-1.36-4.09-1.36c-1.64,0-2.97,0.42-3.98,1.26
				c-1.01,0.84-1.6,2.03-1.77,3.56l-3.75-0.29c0.28-2.39,1.27-4.25,2.97-5.59c1.7-1.34,3.89-2.01,6.57-2.01
				c2.92,0,5.2,0.68,6.82,2.04c1.62,1.36,2.43,3.25,2.43,5.68c0,1.86-0.52,3.38-1.56,4.54c-1.04,1.17-2.55,1.96-4.54,2.37v0.08
				c2.18,0.24,3.88,0.97,5.09,2.19S806.29,381.7,806.29,383.56z"/>
			<path class="st2" d="M829.88,383.48c0,2.69-0.86,4.79-2.57,6.29c-1.71,1.5-4.17,2.26-7.37,2.26c-3.12,0-5.56-0.74-7.31-2.21
				c-1.76-1.48-2.64-3.57-2.64-6.29c0-1.9,0.54-3.5,1.63-4.8c1.09-1.3,2.48-2.08,4.18-2.36v-0.08c-1.59-0.37-2.84-1.18-3.76-2.42
				c-0.92-1.24-1.38-2.7-1.38-4.37c0-2.22,0.83-4.02,2.49-5.4c1.66-1.38,3.89-2.07,6.69-2.07c2.87,0,5.13,0.68,6.8,2.03
				c1.66,1.35,2.49,3.18,2.49,5.48c0,1.67-0.46,3.12-1.39,4.37s-2.19,2.02-3.79,2.34v0.08c1.86,0.3,3.31,1.09,4.34,2.37
				C829.36,379.96,829.88,381.56,829.88,383.48z M826.01,383.12c0-1.81-0.54-3.17-1.61-4.09c-1.08-0.92-2.59-1.38-4.53-1.38
				c-1.89,0-3.37,0.49-4.43,1.48c-1.06,0.99-1.59,2.34-1.59,4.07c0,2,0.51,3.5,1.54,4.51c1.03,1.01,2.56,1.51,4.6,1.51
				c2.03,0,3.54-0.49,4.53-1.46C825.52,386.8,826.01,385.25,826.01,383.12z M825.29,369.74c0-3.3-1.81-4.95-5.42-4.95
				c-3.59,0-5.38,1.65-5.38,4.95c0,1.67,0.47,2.94,1.42,3.82s2.28,1.31,4,1.31c1.75,0,3.09-0.4,4-1.21
				C824.83,372.85,825.29,371.54,825.29,369.74z"/>
			<path class="st2" d="M853.16,388.44v3.17h-19.31v-2.63c0.7-1.61,1.55-3.04,2.55-4.28s2.07-2.36,3.2-3.35
				c1.13-0.99,2.25-1.92,3.35-2.77c0.55-0.43,1.07-0.86,1.56-1.28c0.49-0.43,0.96-0.85,1.4-1.28c0.88-0.85,1.6-1.75,2.14-2.69
				c0.54-0.94,0.82-2,0.82-3.19c0-1.6-0.47-2.84-1.41-3.72c-0.94-0.88-2.24-1.32-3.91-1.32c-1.59,0-2.89,0.43-3.92,1.29
				c-1.03,0.86-1.63,2.07-1.81,3.63l-3.81-0.35c0.28-2.33,1.27-4.19,2.97-5.57c1.7-1.38,3.89-2.07,6.57-2.07
				c2.94,0,5.2,0.69,6.78,2.08s2.37,3.36,2.37,5.91c0,1.13-0.26,2.26-0.78,3.37c-0.52,1.12-1.29,2.24-2.31,3.35
				c-0.51,0.55-1.25,1.26-2.23,2.13c-0.98,0.87-2.19,1.89-3.62,3.06c-1.59,1.3-2.85,2.47-3.79,3.51c-0.94,1.04-1.61,2.05-2.03,3.01
				H853.16z"/>
			<path class="st2" d="M877.21,377.02c0,4.87-0.86,8.59-2.58,11.15c-1.72,2.57-4.25,3.85-7.6,3.85c-3.35,0-5.87-1.28-7.55-3.83
				c-1.68-2.55-2.52-6.28-2.52-11.17c0-5.01,0.82-8.76,2.45-11.26c1.64-2.5,4.22-3.74,7.75-3.74c3.43,0,5.97,1.26,7.6,3.79
				C876.39,368.33,877.21,372.07,877.21,377.02z M873.42,377.02c0-2.81-0.21-5.1-0.63-6.86c-0.42-1.76-1.09-3.05-2.02-3.88
				s-2.13-1.24-3.62-1.24c-1.52,0-2.75,0.41-3.7,1.22s-1.65,2.1-2.08,3.86c-0.43,1.76-0.65,4.06-0.65,6.9
				c0,2.76,0.22,5.02,0.67,6.79c0.45,1.77,1.14,3.07,2.08,3.91c0.94,0.84,2.14,1.26,3.6,1.26c2.19,0,3.8-0.98,4.82-2.94
				C872.91,384.08,873.42,381.08,873.42,377.02z"/>
			<path class="st2" d="M900.3,388.44v3.17h-19.31v-2.63c0.7-1.61,1.55-3.04,2.55-4.28s2.07-2.36,3.2-3.35
				c1.13-0.99,2.25-1.92,3.35-2.77c0.55-0.43,1.07-0.86,1.56-1.28c0.49-0.43,0.96-0.85,1.4-1.28c0.88-0.85,1.6-1.75,2.14-2.69
				c0.54-0.94,0.82-2,0.82-3.19c0-1.6-0.47-2.84-1.41-3.72c-0.94-0.88-2.24-1.32-3.91-1.32c-1.59,0-2.89,0.43-3.92,1.29
				c-1.03,0.86-1.63,2.07-1.81,3.63l-3.81-0.35c0.28-2.33,1.27-4.19,2.97-5.57c1.7-1.38,3.89-2.07,6.57-2.07
				c2.94,0,5.2,0.69,6.78,2.08s2.37,3.36,2.37,5.91c0,1.13-0.26,2.26-0.78,3.37c-0.52,1.12-1.29,2.24-2.31,3.35
				c-0.51,0.55-1.25,1.26-2.23,2.13c-0.98,0.87-2.19,1.89-3.62,3.06c-1.59,1.3-2.85,2.47-3.79,3.51c-0.94,1.04-1.61,2.05-2.03,3.01
				H900.3z"/>
			<path class="st2" d="M914.66,378.7v3.31h-10.35v-3.31H914.66z"/>
			<path class="st2" d="M937.98,365.47c-1.49,2.28-2.76,4.3-3.82,6.08c-1.06,1.78-1.89,3.32-2.49,4.61
				c-1.23,2.58-2.15,5.12-2.76,7.64c-0.61,2.51-0.92,5.11-0.92,7.8h-3.89c0-1.93,0.2-3.89,0.6-5.89c0.4-1.99,1.04-4.09,1.92-6.28
				c0.83-2.05,1.88-4.22,3.16-6.51c1.28-2.28,2.81-4.72,4.6-7.31h-15.66v-3.17h19.26V365.47z"/>
		</g>
		<g>
			<path class="st2" d="M990.54,362.27v29.7h-2.88v-29.7H990.54z"/>
			<path class="st2" d="M997.61,375.99c0-1.87,0-3.69-0.04-5.38h2.63c0.09,0.66,0.14,3.25,0.11,3.86c0.91-2.06,2.66-4.37,6.96-4.37
				c3.88,0,7.16,2.25,7.16,8.07v13.81h-2.7v-13.42c0-3.6-1.47-5.97-5.02-5.97c-4.71,0-6.41,3.81-6.41,8.34v11.05h-2.7V375.99z"/>
			<path class="st2" d="M1021.64,386c0.69,2.62,2.57,4.18,5.77,4.18c3.56,0,4.99-1.61,4.99-3.84c0-2.28-1.01-3.38-5.54-4.47
				c-5.73-1.38-7.06-3.12-7.06-5.97c0-2.98,2.22-5.8,7.29-5.8c5.07,0,7.36,3.04,7.68,6.05h-2.65c-0.36-1.65-1.64-3.76-5.14-3.76
				c-3.46,0-4.46,1.69-4.46,3.29c0,1.83,0.97,2.75,5.09,3.74c6.19,1.48,7.61,3.52,7.61,6.71c0,3.84-3.09,6.35-7.88,6.35
				c-5.11,0-7.84-2.65-8.42-6.49H1021.64z"/>
			<path class="st2" d="M1056.48,385.6c-0.98,3.73-3.46,6.88-8.49,6.88c-5.54,0-9.28-4.07-9.28-11.1c0-5.92,3.23-11.29,9.54-11.29
				c5.69,0,7.88,4.04,8.23,6.95h-2.71c-0.6-2.37-2.13-4.55-5.57-4.55c-4.26,0-6.67,3.63-6.67,8.79c0,5.01,2.28,8.81,6.49,8.81
				c2.96,0,4.72-1.52,5.75-4.49H1056.48z"/>
			<path class="st2" d="M1061.27,376.41c0-3.37-0.04-4.96-0.04-5.81h2.64c0.05,0.65,0.1,2.13,0.1,4.63c1.2-3.09,3.86-4.99,7.35-5.14
				v2.8c-4.42,0.24-7.35,3.03-7.35,8.23v10.85h-2.7V376.41z"/>
			<path class="st2" d="M1075.18,362.68h2.7v4.31h-2.7V362.68z M1075.18,370.6h2.7v21.37h-2.7V370.6z"/>
			<path class="st2" d="M1081.84,370.6h3.87v-6.54h2.7v6.54h4.95v2.37h-4.95v13.39c0,2.28,0.51,3.54,2.52,3.54
				c0.59,0,1.44-0.04,2.09-0.23v2.2c-0.79,0.31-1.91,0.39-2.85,0.39c-2.95,0-4.46-1.5-4.46-4.96v-14.33h-3.87V370.6z"/>
			<path class="st2" d="M1112.7,387.7c0,1.9,0.17,3.62,0.3,4.28h-2.58c-0.17-0.5-0.3-1.47-0.37-3.11c-0.73,1.52-2.55,3.62-6.86,3.62
				c-4.99,0-7.13-3.23-7.13-6.45c0-4.73,3.67-6.88,10.06-6.88c1.68,0,3.08,0,3.91,0v-2.05c0-2.04-0.63-4.71-5.18-4.71
				c-4.05,0-4.67,2.09-5.11,3.81h-2.65c0.27-2.56,1.85-6.11,7.84-6.11c5,0.01,7.79,2.08,7.79,6.84V387.7z M1110.06,381.25
				c-0.77,0-2.61,0-3.93,0c-4.57,0-7.28,1.22-7.28,4.65c0,2.52,1.78,4.28,4.64,4.28c5.76,0,6.56-3.85,6.56-8.2V381.25z"/>
			<path class="st2" d="M1131.52,381.69c0.04,5.09,2.6,8.39,6.53,8.39c3.79,0,5.06-2.08,5.79-3.76h2.73
				c-0.88,2.79-3.15,6.16-8.62,6.16c-6.58,0-9.18-5.55-9.18-11c0-6.2,3.09-11.39,9.43-11.39c6.69,0,8.85,5.63,8.85,9.84
				c0,0.62,0,1.2-0.05,1.76H1131.52z M1144.28,379.55c-0.04-3.97-2.16-7.12-6.15-7.12c-4.17,0-6.05,2.91-6.49,7.12H1144.28z"/>
			<path class="st2" d="M1152.12,375.99c0-1.87,0-3.69-0.04-5.38h2.63c0.09,0.66,0.14,3.25,0.11,3.86c0.91-2.06,2.66-4.37,6.96-4.37
				c3.88,0,7.16,2.25,7.16,8.07v13.81h-2.7v-13.42c0-3.6-1.47-5.97-5.02-5.97c-4.71,0-6.41,3.81-6.41,8.34v11.05h-2.7V375.99z"/>
			<path class="st2" d="M1186.6,391.97V362.1h2.7v29.87H1186.6z"/>
			<path class="st2" d="M1210.86,387.7c0,1.9,0.17,3.62,0.3,4.28h-2.58c-0.17-0.5-0.3-1.47-0.37-3.11
				c-0.73,1.52-2.55,3.62-6.86,3.62c-4.99,0-7.13-3.23-7.13-6.45c0-4.73,3.67-6.88,10.06-6.88c1.68,0,3.08,0,3.91,0v-2.05
				c0-2.04-0.63-4.71-5.18-4.71c-4.05,0-4.67,2.09-5.11,3.81h-2.65c0.27-2.56,1.85-6.11,7.84-6.11c5,0.01,7.79,2.08,7.79,6.84V387.7
				z M1208.22,381.25c-0.77,0-2.61,0-3.93,0c-4.57,0-7.28,1.22-7.28,4.65c0,2.52,1.78,4.28,4.64,4.28c5.76,0,6.56-3.85,6.56-8.2
				V381.25z"/>
			<path class="st2" d="M1230.07,383.89c0.86,3.81,3.42,6,8.1,6c5.15,0,7.14-2.52,7.14-5.6c0-3.22-1.48-5.15-7.8-6.7
				c-6.54-1.62-9.15-3.78-9.15-8.03c0-4.08,2.99-7.71,9.45-7.71c6.73,0,9.54,4.02,9.93,7.73h-2.96c-0.63-2.99-2.55-5.24-7.1-5.24
				c-4.05,0-6.27,1.86-6.27,5c0,3.1,1.85,4.31,7.23,5.63c8.4,2.07,9.72,5.41,9.72,9.06c0,4.52-3.31,8.29-10.33,8.29
				c-7.44,0-10.33-4.24-10.91-8.43H1230.07z"/>
			<path class="st2" d="M1256.6,362.27v17.95c0,7.58,4.24,9.57,8.3,9.57c4.78,0,8.28-2.07,8.28-9.57v-17.95h2.91v17.79
				c0,9.41-5.07,12.26-11.28,12.26c-5.98,0-11.16-3.11-11.16-11.91v-18.14H1256.6z"/>
			<path class="st2" d="M1284.21,362.27h10.12c8.22,0,13.86,5.69,13.86,14.58c0,8.84-5.51,15.12-13.94,15.12h-10.04V362.27z
				 M1287.09,389.42h6.84c7.54,0,11.21-5.33,11.21-12.45c0-6.3-3.32-12.13-11.21-12.13h-6.84V389.42z"/>
			<path class="st2" d="M1332.49,377.63h-15.01v11.78h16.46l-0.4,2.57h-18.91v-29.7h18.61v2.57h-15.76v10.22h15.01V377.63z"/>
			<path class="st2" d="M1343.72,382.19l-3.57,9.79h-2.9l10.79-29.7h3.47l11.25,29.7h-3.11l-3.66-9.79H1343.72z M1355.15,379.62
				c-3.14-8.46-4.79-12.67-5.4-14.76h-0.04c-0.72,2.34-2.57,7.52-5.11,14.76H1355.15z"/>
			<path class="st2" d="M1368.88,383.89c0.86,3.81,3.42,6,8.1,6c5.15,0,7.14-2.52,7.14-5.6c0-3.22-1.48-5.15-7.8-6.7
				c-6.54-1.62-9.15-3.78-9.15-8.03c0-4.08,2.99-7.71,9.45-7.71c6.73,0,9.54,4.02,9.93,7.73h-2.96c-0.63-2.99-2.55-5.24-7.1-5.24
				c-4.05,0-6.27,1.86-6.27,5c0,3.1,1.85,4.31,7.23,5.63c8.4,2.07,9.72,5.41,9.72,9.06c0,4.52-3.31,8.29-10.33,8.29
				c-7.44,0-10.33-4.24-10.91-8.43H1368.88z"/>
			<path class="st2" d="M1411.29,377.63h-15.01v11.78h16.46l-0.4,2.57h-18.91v-29.7h18.61v2.57h-15.76v10.22h15.01V377.63z"/>
			<path class="st2" d="M1441.68,391.97h-2.31c-0.18-0.42-0.28-1.88-0.32-4.49c-1.14,2.06-3.56,4.85-9.46,4.85
				c-8.54,0-12.98-6.5-12.98-14.94c0-8.88,4.74-15.55,13.53-15.55c6.58,0,10.86,3.49,11.76,8.9h-2.88
				c-1.18-3.89-3.91-6.37-8.97-6.37c-7.24,0-10.4,5.68-10.4,12.86c0,6.55,3.09,12.54,10.15,12.54c7.15,0,9.08-4.69,9.08-10.71v-0.33
				h-9.15v-2.57h11.94V391.97z"/>
			<path class="st2" d="M1459.12,362.1h2.7V374c1-2.02,3.05-3.9,7.13-3.9c5.16,0,8.75,4.24,8.75,10.74c0,6.66-3.31,11.65-9.31,11.65
				c-3.53,0-5.48-1.38-6.58-3.69c0,1.27-0.05,2.59-0.11,3.18h-2.62c0.04-2.42,0.04-4.84,0.04-7.26V362.1z M1474.88,380.89
				c0-5.08-2.45-8.38-6.39-8.38c-5.05,0-6.83,3.42-6.83,8.84c0,4.83,1.58,8.73,6.6,8.73
				C1472.39,390.08,1474.88,386.62,1474.88,380.89z"/>
			<path class="st2" d="M1497.92,387.7c0,1.9,0.17,3.62,0.3,4.28h-2.58c-0.17-0.5-0.3-1.47-0.37-3.11
				c-0.73,1.52-2.55,3.62-6.86,3.62c-4.99,0-7.13-3.23-7.13-6.45c0-4.73,3.67-6.88,10.06-6.88c1.68,0,3.08,0,3.91,0v-2.05
				c0-2.04-0.63-4.71-5.18-4.71c-4.05,0-4.67,2.09-5.11,3.81h-2.65c0.27-2.56,1.85-6.11,7.84-6.11c5,0.01,7.79,2.08,7.79,6.84V387.7
				z M1495.28,381.25c-0.77,0-2.61,0-3.93,0c-4.57,0-7.28,1.22-7.28,4.65c0,2.52,1.78,4.28,4.64,4.28c5.76,0,6.56-3.85,6.56-8.2
				V381.25z"/>
			<path class="st2" d="M1507.45,370.6v22.58c0,5.82-1.42,7.71-5.49,7.71c-0.15,0-0.99-0.04-1.29-0.08v-2.41
				c0.32,0.04,0.67,0.04,0.92,0.04c2.87,0,3.17-1.56,3.17-4.85V370.6H1507.45z"/>
			<rect x="1504.75" y="362.1" class="st2" width="2.7" height="4.31"/>
			<path class="st2" d="M1531.88,381.25c0,6.02-3.38,11.24-9.8,11.24c-5.9,0-9.53-4.74-9.53-11.18c0-6.18,3.47-11.2,9.75-11.2
				C1528.08,370.09,1531.88,374.54,1531.88,381.25z M1515.37,381.29c0,4.94,2.59,8.8,6.87,8.8c4.36,0,6.82-3.6,6.82-8.79
				c0-4.96-2.43-8.8-6.91-8.8C1517.6,372.49,1515.37,376.25,1515.37,381.29z"/>
			<path class="st2" d="M1549.02,381.69c0.04,5.09,2.6,8.39,6.53,8.39c3.79,0,5.06-2.08,5.79-3.76h2.73
				c-0.88,2.79-3.15,6.16-8.62,6.16c-6.58,0-9.18-5.55-9.18-11c0-6.2,3.09-11.39,9.43-11.39c6.69,0,8.85,5.63,8.85,9.84
				c0,0.62,0,1.2-0.05,1.76H1549.02z M1561.78,379.55c-0.04-3.97-2.16-7.12-6.15-7.12c-4.17,0-6.05,2.91-6.49,7.12H1561.78z"/>
			<path class="st2" d="M1569.61,375.99c0-1.87,0-3.69-0.04-5.38h2.63c0.09,0.66,0.14,3.25,0.11,3.86c0.91-2.06,2.66-4.37,6.96-4.37
				c3.88,0,7.17,2.25,7.17,8.07v13.81h-2.7v-13.42c0-3.6-1.47-5.97-5.02-5.97c-4.71,0-6.41,3.81-6.41,8.34v11.05h-2.7V375.99z"/>
			<path class="st2" d="M1604.79,391.97v-29.7h4.04c4.5,7.06,14.79,23.01,16.59,26.23h0.05c-0.27-4.12-0.23-8.6-0.23-13.44v-12.79
				h2.83v29.7h-3.77c-4.24-6.72-14.78-23.5-16.81-26.79h-0.05c0.21,3.72,0.19,8.3,0.19,13.68v13.12H1604.79z"/>
			<path class="st2" d="M1640.51,367.2c-0.03,2.85-2.06,4.14-3.97,4.14c-2.21,0-3.94-1.59-3.94-4.02c0-2.58,1.86-4.17,3.99-4.17
				C1638.99,363.16,1640.51,364.87,1640.51,367.2z M1634.26,367.27c0,1.64,1.07,2.83,2.31,2.83c1.31,0,2.28-1.14,2.28-2.85
				c0-1.24-0.67-2.85-2.31-2.85C1634.95,364.4,1634.26,365.93,1634.26,367.27z"/>
			<path class="st2" d="M1659.94,391.95V366.1c-1.49,1.24-4.71,2.76-6.41,3.12v-2.48c2.04-0.64,4.88-2.36,7.03-4.3h2.29v29.51
				H1659.94z"/>
			<path class="st2" d="M1689.55,377.08c0,6.92-1.86,15.41-9.82,15.41c-7.76,0-9.78-7.84-9.78-15.19c0-7.3,2.18-15.19,9.91-15.19
				S1689.55,369.93,1689.55,377.08z M1673.03,377.32c0,5.66,1.12,12.6,6.71,12.6c5.69,0,6.76-6.63,6.76-12.84
				c0-5.62-1.09-12.42-6.6-12.42C1674.18,364.66,1673.03,370.84,1673.03,377.32z"/>
			<path class="st2" d="M1713.92,377.08c0,6.92-1.86,15.41-9.82,15.41c-7.76,0-9.78-7.84-9.78-15.19c0-7.3,2.18-15.19,9.91-15.19
				C1711.97,362.1,1713.92,369.93,1713.92,377.08z M1697.4,377.32c0,5.66,1.12,12.6,6.71,12.6c5.69,0,6.76-6.63,6.76-12.84
				c0-5.62-1.09-12.42-6.6-12.42C1698.55,364.66,1697.4,370.84,1697.4,377.32z"/>
		</g>
	</g>
	<g>
		<path class="st0" d="M590.24,242.15h35.56c11.61,0,21.01,3.52,28.21,10.55c7.13,6.97,10.7,16.16,10.7,27.58
			c0,11.35-3.53,20.53-10.6,27.52c-6.97,6.9-16.27,10.35-27.91,10.35h-35.95V242.15z M601.29,252.09v56.12h23.92
			c8.68,0,15.62-2.53,20.81-7.59c5.26-5.13,7.89-11.91,7.89-20.34c0-8.49-2.7-15.29-8.09-20.39c-5.39-5.2-12.4-7.8-21.01-7.8H601.29
			z"/>
		<path class="st0" d="M888.79,248.96l-3.95,9.37c-9.44-4.37-19.1-6.56-29-6.56c-14.4,0-21.6,3.63-21.6,10.9
			c0,5.56,4.82,8.96,14.45,10.21l19.58,2.42c15.49,1.94,23.23,8.98,23.23,21.11c0,14.5-10.82,21.75-32.45,21.75
			c-13.38,0-25.86-2.63-37.43-7.89l4.14-10.11c11.44,5.39,22.72,8.09,33.83,8.09c14.01,0,21.01-3.81,21.01-11.44
			c0-6.05-5.1-9.68-15.29-10.9l-19.38-2.32c-7.33-0.85-12.95-3.05-16.87-6.58c-3.91-3.53-5.87-8.14-5.87-13.83
			c0-6.71,2.81-11.89,8.43-15.53c5.62-3.65,13.66-5.47,24.12-5.47C867.36,242.15,878.37,244.42,888.79,248.96z"/>
		<path class="st0" d="M920.17,242.15h63.03v9.62h-51.98v24.66h46.16l0,9.32h-46.16v22.78h51.98v9.62h-63.03V242.15z"/>
		<path class="st0" d="M693.38,242.15h60.21v9.62h-49.17v24.66h46.16l-3.85,9.32h-42.31v22.78h51.98v9.62h-63.03V242.15z"/>
		<path class="st0" d="M1091.01,275.99v34.58c-10.69,5.06-22,7.58-33.93,7.58c-13.74,0-24.72-3.43-32.94-10.29
			c-8.12-6.9-12.18-16.19-12.18-27.88c0-11.69,4.14-20.9,12.43-27.63c8.35-6.8,19.59-10.2,33.73-10.2c9.93,0,20.53,2.09,31.81,6.25
			l-4.04,9.61c-9.21-4.1-18.36-6.16-27.47-6.16c-10.78,0-19.38,2.53-25.79,7.58c-6.25,4.93-9.37,11.71-9.37,20.34
			c0,8.67,3.09,15.56,9.27,20.69c6.25,5.12,14.63,7.68,25.15,7.68c7.66,0,15.17-1.35,22.54-4.04v-18.67h-28.16l0.02-9.46H1091.01z"
			/>
		<path class="st0" d="M1119.17,242.15h11v42.81c0,7.19,2.21,12.87,6.63,17.04c4.42,4.18,10.4,6.27,17.93,6.27
			c7.63,0,13.64-2.09,18.05-6.27c4.5-4.18,6.76-9.86,6.76-17.04v-42.81h10.95v44.47c0,9.69-3.21,17.4-9.62,23.11
			c-6.31,5.61-14.96,8.42-25.94,8.42c-11.15,0-19.87-2.81-26.19-8.42c-6.38-5.68-9.57-13.38-9.57-23.11V242.15z"/>
		<path class="st0" d="M1219.01,242.15h42.36c8.02,0,14.38,2.06,19.08,6.17c4.83,4.04,7.25,9.4,7.25,16.08
			c0,5.62-1.76,10.29-5.28,14.01c-3.52,3.72-8.35,6.05-14.5,7l24.96,32.75h-13.76l-23.82-31.76h-22.09v-9.57h28.75
			c4.47,0,8.06-1.13,10.78-3.38c2.71-2.25,4.07-5.24,4.07-8.95c0-3.78-1.32-6.85-3.95-9.2c-2.63-2.35-6.07-3.53-10.31-3.53h-32.5
			v66.38h-11.05V242.15z"/>
		<path class="st0" d="M1359.76,242.16c12.59,0,23,3.58,31.22,10.75c8.15,7.04,12.23,16.13,12.23,27.27
			c0,11.11-4.08,20.24-12.23,27.37c-8.22,7.07-18.62,10.6-31.22,10.6c-12.66,0-23.1-3.53-31.32-10.6
			c-8.06-7.13-12.08-16.26-12.08-27.37c0-11.15,4.03-20.24,12.08-27.27C1336.66,245.74,1347.1,242.16,1359.76,242.16z
			 M1336.53,259.76c-5.92,5.2-8.88,12-8.88,20.42c0,8.38,2.96,15.17,8.88,20.37c6.02,5.26,13.76,7.89,23.23,7.89
			c9.4,0,17.11-2.63,23.13-7.89c6.02-5.26,9.03-12.05,9.03-20.37c0-8.35-3.01-15.16-9.03-20.42c-6.02-5.26-13.73-7.89-23.13-7.89
			C1350.29,251.87,1342.54,254.5,1336.53,259.76z"/>
		<path class="st0" d="M1490.59,248.96l-3.95,9.37c-9.44-4.37-19.1-6.56-29-6.56c-14.4,0-21.6,3.63-21.6,10.9
			c0,5.56,4.82,8.96,14.45,10.21l19.58,2.42c15.49,1.94,23.23,8.98,23.23,21.11c0,14.5-10.82,21.75-32.45,21.75
			c-13.38,0-25.86-2.63-37.43-7.89l4.14-10.11c11.44,5.39,22.72,8.09,33.83,8.09c14.01,0,21.01-3.81,21.01-11.44
			c0-6.05-5.1-9.68-15.29-10.9l-19.38-2.32c-7.33-0.85-12.95-3.05-16.87-6.58c-3.91-3.53-5.87-8.14-5.87-13.83
			c0-6.71,2.81-11.89,8.43-15.53c5.62-3.65,13.66-5.47,24.12-5.47C1469.15,242.15,1480.16,244.42,1490.59,248.96z"/>
	</g>
</g>
<g id="Layer_2" class="st3">
	<rect x="659.64" y="362.76" class="st4" width="1210.17" height="30"/>
	<rect x="659.64" y="468.76" class="st4" width="1210.17" height="30"/>
	<rect x="659.64" y="392.76" class="st4" width="1210.17" height="76"/>
	<rect x="659.64" y="210.76" class="st4" width="1210.17" height="76"/>
	<rect x="659.64" y="286.76" class="st4" width="1210.17" height="76"/>
	<g class="st5">
		<line class="st6" x1="838.53" y1="392.76" x2="838.53" y2="210.76"/>
		<line class="st6" x1="824.2" y1="392.76" x2="824.2" y2="210.76"/>
	</g>
	<g class="st5">
		<line class="st6" x1="881.54" y1="392.76" x2="881.54" y2="210.76"/>
		<line class="st6" x1="867.2" y1="392.76" x2="867.2" y2="210.76"/>
	</g>
	<g class="st5">
		<line class="st6" x1="969.1" y1="392.76" x2="969.1" y2="210.76"/>
		<line class="st6" x1="954.77" y1="392.76" x2="954.77" y2="210.76"/>
	</g>
	<g class="st5">
		<line class="st6" x1="1055.05" y1="392.76" x2="1055.05" y2="210.76"/>
		<line class="st6" x1="1040.72" y1="392.76" x2="1040.72" y2="210.76"/>
	</g>
	<g class="st5">
		<line class="st6" x1="1133.66" y1="392.76" x2="1133.66" y2="210.76"/>
		<line class="st6" x1="1119.33" y1="392.76" x2="1119.33" y2="210.76"/>
	</g>
	<g class="st5">
		<line class="st6" x1="1219.41" y1="392.76" x2="1219.41" y2="210.76"/>
		<line class="st6" x1="1205.07" y1="392.76" x2="1205.07" y2="210.76"/>
	</g>
	<g class="st5">
		<line class="st6" x1="1306.97" y1="392.76" x2="1306.97" y2="210.76"/>
		<line class="st6" x1="1292.64" y1="392.76" x2="1292.64" y2="210.76"/>
	</g>
	<g class="st5">
		<line class="st6" x1="1485.31" y1="392.76" x2="1485.31" y2="210.76"/>
		<line class="st6" x1="1470.98" y1="392.76" x2="1470.98" y2="210.76"/>
	</g>
	<g class="st5">
		<line class="st6" x1="1513.98" y1="392.76" x2="1513.98" y2="210.76"/>
		<line class="st6" x1="1499.64" y1="392.76" x2="1499.64" y2="210.76"/>
	</g>
	<g class="st5">
		<line class="st6" x1="1617.69" y1="392.76" x2="1617.69" y2="210.76"/>
		<line class="st6" x1="1603.35" y1="392.76" x2="1603.35" y2="210.76"/>
	</g>
	<g class="st5">
		<line class="st6" x1="1705.25" y1="392.76" x2="1705.25" y2="210.76"/>
		<line class="st6" x1="1690.92" y1="392.76" x2="1690.92" y2="210.76"/>
	</g>
	<g class="st5">
		<line class="st6" x1="1807.45" y1="392.76" x2="1807.45" y2="210.76"/>
		<line class="st6" x1="1793.11" y1="392.76" x2="1793.11" y2="210.76"/>
	</g>
	<g class="st5">
		<line class="st6" x1="1424.65" y1="392.76" x2="1339.72" y2="210.76"/>
		<line class="st6" x1="1408.83" y1="392.76" x2="1323.9" y2="210.76"/>
	</g>
	<g class="st5">
		<line class="st6" x1="852.87" y1="392.76" x2="852.87" y2="210.76"/>
	</g>
	<g class="st5">
		<g>
			<line class="st6" x1="1540.7" y1="468.76" x2="1540.7" y2="392.76"/>
		</g>
		<g>
			<line class="st6" x1="659.64" y1="468.76" x2="659.64" y2="392.76"/>
		</g>
		<g>
			<g>
				<line class="st6" x1="748.44" y1="468.76" x2="748.44" y2="392.76"/>
				<line class="st6" x1="734.11" y1="468.76" x2="734.11" y2="392.76"/>
			</g>
			<g>
				<line class="st6" x1="762.78" y1="468.76" x2="762.78" y2="392.76"/>
			</g>
		</g>
		<g>
			<g>
				<line class="st6" x1="953.24" y1="468.76" x2="953.24" y2="392.76"/>
				<line class="st6" x1="938.9" y1="468.76" x2="938.9" y2="392.76"/>
			</g>
			<g>
				<line class="st6" x1="967.57" y1="468.76" x2="967.57" y2="392.76"/>
			</g>
		</g>
		<g>
			<g>
				<line class="st6" x1="1044.93" y1="468.76" x2="1044.93" y2="392.76"/>
				<line class="st6" x1="1030.6" y1="468.76" x2="1030.6" y2="392.76"/>
			</g>
			<g>
				<line class="st6" x1="1059.26" y1="468.76" x2="1059.26" y2="392.76"/>
			</g>
		</g>
		<g>
			<g>
				<line class="st6" x1="1152.74" y1="468.76" x2="1152.74" y2="392.76"/>
				<line class="st6" x1="1138.41" y1="468.76" x2="1138.41" y2="392.76"/>
			</g>
			<g>
				<line class="st6" x1="1167.08" y1="468.76" x2="1167.08" y2="392.76"/>
			</g>
		</g>
		<g>
			<g>
				<line class="st6" x1="1252.07" y1="468.76" x2="1252.07" y2="392.76"/>
				<line class="st6" x1="1237.74" y1="468.76" x2="1237.74" y2="392.76"/>
			</g>
			<g>
				<line class="st6" x1="1266.41" y1="468.76" x2="1266.41" y2="392.76"/>
			</g>
		</g>
		<g>
			<g>
				<line class="st6" x1="1349.42" y1="468.76" x2="1349.42" y2="392.76"/>
				<line class="st6" x1="1335.09" y1="468.76" x2="1335.09" y2="392.76"/>
			</g>
			<g>
				<line class="st6" x1="1363.75" y1="468.76" x2="1363.75" y2="392.76"/>
			</g>
		</g>
		<g>
			<g>
				<line class="st6" x1="1452.88" y1="468.76" x2="1482.87" y2="392.76"/>
				<line class="st6" x1="1437.47" y1="468.76" x2="1467.82" y2="391.86"/>
			</g>
			<g>
				<line class="st6" x1="1468.29" y1="468.76" x2="1498.17" y2="393.05"/>
			</g>
		</g>
		<g>
			<g>
				<g>
					<line class="st6" x1="840.35" y1="468.76" x2="840.35" y2="392.76"/>
					<line class="st6" x1="826.02" y1="468.76" x2="826.02" y2="392.76"/>
				</g>
				<g>
					<line class="st6" x1="854.69" y1="468.76" x2="854.69" y2="392.76"/>
				</g>
			</g>
			<g>
				<g>
					<line class="st6" x1="869.02" y1="468.76" x2="869.02" y2="392.76"/>
				</g>
			</g>
		</g>
	</g>
	<g class="st5">
		<line class="st6" x1="736.34" y1="392.76" x2="736.34" y2="210.76"/>
		<line class="st6" x1="722.01" y1="392.76" x2="722.01" y2="210.76"/>
	</g>
	<path class="st7" d="M366.77,186.9c91.28-7.13,173.73,34.16,197.26,105.1c28.27,85.22-39.19,180.96-150.67,213.84
		c-11.81,3.48-23.65,6.12-35.39,7.95c-6.83,1.07-13.63,1.86-20.38,2.38c-91.28,7.13-173.74-34.16-197.27-105.1
		c-28.27-85.22,39.19-180.96,150.67-213.84c11.81-3.48,23.65-6.12,35.39-7.95c0.01,0,0.01,0,0.02,0
		C353.23,188.22,360.02,187.43,366.77,186.9"/>
	<g class="st5">
		<path class="st8" d="M364.26,154.73c-7.63,0.6-15.36,1.5-22.97,2.68l-0.24,0.04l-0.06,0.01l-0.03,0l-0.01,0
			c-13.3,2.09-26.64,5.09-39.66,8.93c-70.13,20.69-127.87,64.52-158.42,120.26c-11.57,21.11-18.8,43.13-21.47,65.45
			c-2.82,23.53-0.52,46.72,6.85,68.95c7.15,21.55,18.77,41.29,34.55,58.67c14.95,16.47,33.28,30.45,54.49,41.55
			c20.52,10.74,43.25,18.53,67.53,23.14c24.32,4.62,49.64,5.95,75.28,3.94c7.66-0.6,15.41-1.51,23.06-2.7
			c13.38-2.09,26.8-5.1,39.9-8.97c70.13-20.68,127.87-64.52,158.42-120.26c11.57-21.11,18.8-43.13,21.47-65.45
			c2.82-23.53,0.52-46.72-6.85-68.95c-7.15-21.55-18.77-41.29-34.54-58.67c-14.94-16.47-33.28-30.45-54.49-41.55
			c-20.52-10.74-43.24-18.53-67.53-23.14C415.22,154.06,389.89,152.73,364.26,154.73L364.26,154.73z"/>
		<path class="st8" d="M366.3,170.35c-7.99,0.62-16.08,1.57-24.05,2.82l-0.25,0.04l-0.07,0.01l-0.03,0l-0.01,0
			c-13.93,2.2-27.9,5.38-41.52,9.45c-73.42,21.92-133.83,68.49-165.75,127.76c-12.09,22.45-19.63,45.87-22.4,69.61
			c-2.93,25.03-0.48,49.72,7.27,73.38c7.52,22.94,19.71,43.96,36.26,62.47c15.67,17.54,34.89,32.44,57.12,44.28
			c21.51,11.46,45.32,19.77,70.76,24.71c25.47,4.95,52,6.39,78.84,4.3c8.02-0.63,16.14-1.58,24.14-2.84
			c14.01-2.2,28.07-5.39,41.78-9.49c73.42-21.92,133.83-68.48,165.75-127.76c12.09-22.45,19.63-45.87,22.4-69.61
			c2.93-25.03,0.48-49.72-7.27-73.38c-7.51-22.94-19.71-43.96-36.25-62.47c-15.67-17.54-34.89-32.44-57.12-44.28
			c-21.51-11.46-45.31-19.77-70.75-24.72C419.67,169.7,393.14,168.26,366.3,170.35L366.3,170.35z"/>
	</g>
	<path class="st7" d="M360.84,155c-6.31,0.49-12.69,1.24-18.98,2.22l-0.57,0.09l-0.08,0.02c-10.85,1.72-21.73,4.18-32.35,7.31
		c-58,17.11-105.81,53.45-131.16,99.71c-9.68,17.65-15.72,36.09-17.97,54.8c-2.38,19.79-0.43,39.31,5.77,58.02
		c6.01,18.13,15.79,34.73,29.05,49.34c12.51,13.79,27.84,25.48,45.56,34.76c17.07,8.93,35.94,15.4,56.1,19.23
		c20.13,3.82,41.08,4.92,62.27,3.27c6.33-0.49,12.73-1.24,19.04-2.23c11.04-1.72,22.12-4.21,32.93-7.4
		c58-17.11,105.81-53.45,131.16-99.71c9.68-17.65,15.72-36.09,17.97-54.8c2.38-19.79,0.43-39.31-5.77-58.02
		c-6.01-18.13-15.79-34.73-29.04-49.34c-12.51-13.79-27.84-25.48-45.56-34.76c-17.07-8.93-35.94-15.4-56.1-19.23
		C402.98,154.44,382.03,153.34,360.84,155L360.84,155z"/>
	<path class="st7" d="M386.3,195.85c61.82-4.83,115.11,22.27,129.58,65.9c7.13,21.49,4.38,44.75-7.96,67.26
		c-8.36,15.25-21.01,29.61-36.58,41.52c-16.74,12.81-36.19,22.53-57.81,28.91c-8.11,2.39-16.4,4.26-24.66,5.54
		c-4.69,0.73-9.45,1.29-14.14,1.65c-61.83,4.83-115.12-22.27-129.59-65.89c-7.13-21.49-4.38-44.75,7.96-67.26
		c8.36-15.25,21.01-29.61,36.58-41.52c16.74-12.81,36.19-22.53,57.81-28.91c8.11-2.39,16.4-4.26,24.66-5.54l0.27-0.04
		C377.03,196.75,381.69,196.21,386.3,195.85"/>
	<path class="st7" d="M365.29,216.76c60.19-4.7,112.07,21.68,126.16,64.16c6.94,20.92,4.26,43.57-7.75,65.49
		c-8.14,14.85-20.45,28.83-35.61,40.43c-16.3,12.47-35.23,21.94-56.28,28.15c-7.89,2.33-15.97,4.14-24.01,5.4
		c-4.57,0.71-9.2,1.25-13.77,1.61c-60.2,4.7-112.08-21.68-126.17-64.16c-6.94-20.92-4.26-43.57,7.75-65.49
		c8.14-14.85,20.45-28.83,35.61-40.43c16.3-12.47,35.23-21.94,56.28-28.15c7.89-2.33,15.97-4.14,24.01-5.4l0.27-0.04
		C356.27,217.63,360.81,217.11,365.29,216.76"/>
</g>
</svg>
